<?xml version="1.0" encoding="UTF-8"?>
<svg xmlns="http://www.w3.org/2000/svg" viewBox="0 0 200 200" width="200" height="200">
  <path fill="#000000" fill-rule="evenodd" d="M 100.500 30.500 C 124.539 34.106, 148.468 40.436, 160.500 64.500 C 166.866 77.231, 170.500 85.680, 170.500 100.500 C 170.500 138.806, 138.522 170.500, 100.500 170.500 C 41.444 170.500, 12.093 105.166, 44.500 58.500 C 58.492 38.352, 77.758 33.911, 100.500 30.500 Z M 100.500 75.500 C 108.310 76.616, 115.678 78.534, 120.500 85.500 C 131.833 101.870, 121.315 125.500, 100.500 125.500 C 79.685 125.500, 69.167 101.870, 80.500 85.500 C 85.322 78.534, 92.690 76.616, 100.500 75.500 Z "/>
</svg>
