<?xml version="1.0" encoding="UTF-8"?>
<svg xmlns="http://www.w3.org/2000/svg" viewBox="0 0 200 200" width="200" height="200">
  <path fill="#000000" fill-rule="evenodd" d="M 100.500 30.500 L 101.500 31.500 L 111.500 31.500 L 120.500 33.500 L 128.500 36.500 L 142.500 44.500 L 156.500 58.500 L 160.500 64.500 L 167.500 80.500 L 169.500 89.500 L 169.500 99.500 L 170.500 100.500 L 169.500 101.500 L 169.500 111.500 L 167.500 120.500 L 164.500 128.500 L 156.500 142.500 L 142.500 156.500 L 136.500 160.500 L 120.500 167.500 L 111.500 169.500 L 101.500 169.500 L 100.500 170.500 L 99.500 169.500 L 89.500 169.500 L 80.500 167.500 L 72.500 164.500 L 58.500 156.500 L 44.500 142.500 L 40.500 136.500 L 33.500 120.500 L 31.500 111.500 L 31.500 101.500 L 30.500 100.500 L 31.500 99.500 L 31.500 89.500 L 33.500 80.500 L 36.500 72.500 L 44.500 58.500 L 58.500 44.500 L 64.500 40.500 L 80.500 33.500 L 89.500 31.500 L 99.500 31.500 L 100.500 30.500 Z M 100.500 75.500 L 101.500 76.500 L 107.500 76.500 L 115.500 80.500 L 120.500 85.500 L 124.500 93.500 L 124.500 99.500 L 125.500 100.500 L 124.500 101.500 L 124.500 107.500 L 120.500 115.500 L 115.500 120.500 L 107.500 124.500 L 101.500 124.500 L 100.500 125.500 L 99.500 124.500 L 93.500 124.500 L 85.500 120.500 L 80.500 115.500 L 76.500 107.500 L 76.500 101.500 L 75.500 100.500 L 76.500 99.500 L 76.500 93.500 L 80.500 85.500 L 85.500 80.500 L 93.500 76.500 L 99.500 76.500 L 100.500 75.500 Z "/>
</svg>
